# xmcd
#
# Track frame offsets: 
#        150
#        12133
#        27292
#        44694
#        61412
#        83839
#        99566
#        126446
#        145324
#        163568
#        175108
#        186387
#        197414
#        213746
#        237542
#        256534
#        274426
#        292989
#        310018
#        325401
#
# Disc length: 4578 seconds
#
# Revision: 0
# Processed by: cddbd v1.5.2PL0 Copyright (c) Steve Scherf et al.
# Submitted via: ExactAudioCopy v0.99pb5
#
DISCID=2811e014
DTITLE=Melinda Schneider - Life Begins At 40 CD2
DYEAR=2011
DGENRE=Country
TTITLE0=Live and Well - I Wanna Be Married
TTITLE1=Live and Well - Bad Day
TTITLE2=Live and Well - Grassy
TTITLE3=Live and Well - Be Yourself
TTITLE4=Live and Well - The Story Of My Life
TTITLE5=Live and Well - Still Here (with Brad Bergen)
TTITLE6=Live and Well - People Don't Change
TTITLE7=Live and Well - Can You Hear Me Down The Hillside
TTITLE8=Live and Well - To Love Somebody
TTITLE9=Live and Well - Real People
TTITLE10=Live and Well - Big World Small World
TTITLE11=Live and Well - Men In Trucks
TTITLE12=Live and Well - Stronger
TTITLE13=Live and Well - Sgt Bean
TTITLE14=Live and Well - Courageous
TTITLE15=Live and Well - Sometimes It Takes Balls To Be A Woman
TTITLE16=Slightly Embarrasing Moments - I Just Wanna Yodel Like You (d
TTITLE16=uet with Mary Schneider)
TTITLE17=Slightly Embarrasing Moments - Tighten Up Your Pants (Audio M
TTITLE17=urphy feat Melinda)
TTITLE18=Christmas Songs - Santa Call On Me (duet with Peter Ciani)
TTITLE19=Christmas Songs - Wish You Were Here
EXTD=
EXTT0=
EXTT1=
EXTT2=
EXTT3=
EXTT4=
EXTT5=
EXTT6=
EXTT7=
EXTT8=
EXTT9=
EXTT10=
EXTT11=
EXTT12=
EXTT13=
EXTT14=
EXTT15=
EXTT16=
EXTT17=
EXTT18=
EXTT19=
PLAYORDER=
